<?xml version="1.0" standalone="no"?>
<!DOCTYPE svg PUBLIC "-//W3C//DTD SVG 20010904//EN"
 "http://www.w3.org/TR/2001/REC-SVG-20010904/DTD/svg10.dtd">
<svg version="1.0" xmlns="http://www.w3.org/2000/svg"
 width="260.000000pt" height="260.000000pt" viewBox="0 0 260.000000 260.000000"
 preserveAspectRatio="xMidYMid meet">
<metadata>
Created by potrace 1.11, written by Peter Selinger 2001-2013
</metadata>
<g transform="translate(0.000000,260.000000) scale(0.100000,-0.100000)"
fill="#000000" stroke="none">
<path d="M1365 2223 c-3 -16 -14 -48 -23 -73 -18 -47 -30 -54 -103 -65 -45 -7
-85 -45 -101 -96 -15 -51 -1 -96 61 -202 63 -107 75 -145 87 -262 8 -81 21
-122 47 -140 32 -22 299 -22 321 1 41 40 7 86 -101 135 -45 21 -83 43 -83 48
0 5 11 37 24 72 15 41 24 89 25 134 2 39 4 84 5 100 4 38 59 191 96 265 16 31
30 67 31 80 l4 25 -142 3 -142 3 -6 -28z m-3 -231 c-4 -48 13 -62 53 -44 18 9
25 8 29 -4 4 -10 -5 -19 -26 -28 -53 -23 -88 -1 -88 54 0 47 9 72 24 67 6 -2
10 -21 8 -45z"/>
<path d="M1047 1728 c-20 -12 -3 -17 66 -19 64 -2 88 4 75 17 -9 8 -128 10
-141 2z"/>
<path d="M1032 1602 c-28 -2 -42 -7 -39 -15 4 -12 158 -18 200 -9 61 15 -55
32 -161 24z"/>
<path d="M941 1460 c-24 -14 2 -17 142 -17 125 0 175 8 130 21 -29 8 -258 5
-272 -4z"/>
<path d="M754 1021 c-19 -64 -42 -136 -50 -160 -19 -61 -19 -61 25 -61 34 0
40 4 49 29 9 26 14 28 58 27 43 -1 49 -4 54 -26 5 -21 12 -25 49 -28 41 -3 42
-2 35 20 -4 13 -13 43 -20 68 -6 25 -26 89 -43 144 -17 54 -31 100 -31 101 0
2 -20 2 -45 2 l-45 0 -36 -116z m100 -58 c7 -32 6 -33 -23 -33 -28 0 -30 2
-21 23 5 12 12 36 15 52 6 27 8 28 15 10 4 -11 11 -35 14 -52z"/>
<path d="M1008 1134 c-3 -5 -5 -82 -5 -172 l0 -163 75 2 c42 1 88 8 103 16 68
34 99 155 60 236 -31 63 -61 80 -152 85 -42 2 -79 0 -81 -4z m155 -106 c35
-41 11 -136 -35 -139 -7 0 -21 -2 -30 -4 -16 -3 -18 6 -18 79 0 46 3 86 6 89
12 11 58 -4 77 -25z"/>
<path d="M1376 1132 c-7 -12 -96 -309 -96 -321 0 -6 16 -11 36 -11 30 0 37 4
47 29 10 26 15 29 59 29 43 1 49 -2 54 -24 4 -14 15 -29 26 -33 17 -6 15 -9
-16 -26 -30 -16 -36 -25 -36 -51 l0 -32 50 24 c44 21 50 28 50 54 0 17 4 30 9
30 5 0 -2 37 -16 83 -14 45 -31 102 -38 127 -35 120 -38 125 -83 127 -23 1
-43 -1 -46 -5z m53 -124 c21 -58 21 -76 2 -81 -30 -8 -45 7 -32 31 6 11 11 32
11 46 0 32 8 33 19 4z"/>
<path d="M1590 969 l0 -169 41 0 40 0 -3 85 c-3 87 5 112 16 51 4 -19 13 -57
22 -85 14 -48 17 -51 49 -51 l33 0 18 75 c10 41 21 75 25 75 4 0 7 -34 6 -75
l-2 -76 40 3 40 3 0 165 0 165 -42 1 c-23 1 -46 -3 -51 -9 -5 -7 -21 -52 -36
-101 -14 -49 -28 -91 -30 -93 -2 -3 -19 42 -38 99 l-33 103 -47 1 -48 1 0
-168z"/>
<path d="M466 671 c-2 -3 -4 -57 -4 -119 -1 -62 -4 -117 -7 -122 -10 -15 -25
-12 -32 8 -9 24 -19 29 -53 24 -35 -5 -39 -26 -14 -73 17 -33 69 -61 102 -54
70 13 84 53 80 220 l-3 120 -33 1 c-18 0 -35 -2 -36 -5z"/>
<path d="M670 670 c-9 -6 -27 -58 -84 -252 l-23 -77 21 -3 c42 -7 64 3 69 31
5 25 9 27 49 25 24 -1 46 -3 49 -3 4 -1 10 -12 13 -25 4 -18 14 -25 42 -28 20
-2 38 0 40 6 2 6 -18 83 -45 170 l-48 160 -37 1 c-20 0 -41 -2 -46 -5z m54
-155 c9 -48 9 -50 -14 -51 -28 -2 -30 6 -18 54 12 48 23 47 32 -3z"/>
<path d="M882 670 c-9 -7 -9 -323 0 -331 4 -3 23 -3 41 -1 l33 4 -2 79 c-1 43
1 79 5 79 3 0 12 -26 20 -57 22 -96 27 -103 64 -103 33 0 33 0 52 76 10 41 21
77 25 79 4 2 6 -30 5 -71 -2 -82 5 -93 53 -86 l27 4 -2 156 c-1 86 -2 162 -2
167 -1 9 -32 11 -86 6 -6 -1 -23 -46 -39 -101 -16 -55 -32 -100 -35 -100 -3 0
-19 45 -36 100 -16 55 -31 100 -34 101 -25 4 -83 4 -89 -1z"/>
<path d="M1246 671 c-1 -3 -2 -78 -2 -166 l1 -160 38 -6 c33 -5 37 -3 38 15 0
12 1 88 1 171 l-1 149 -36 1 c-20 1 -37 -1 -39 -4z"/>
<path d="M1373 671 c-5 -3 -8 -79 -8 -168 l0 -161 38 -4 c42 -4 40 -9 38 121
0 35 1 62 3 60 2 -2 27 -46 56 -97 37 -67 56 -92 67 -88 8 3 24 6 36 6 22 0
22 2 21 162 -1 90 -2 165 -3 168 -1 5 -50 5 -71 1 -3 -1 -5 -39 -5 -86 1 -47
-2 -85 -5 -85 -3 0 -25 38 -49 85 -24 47 -47 85 -50 86 -28 5 -61 5 -68 0z"/>
<path d="M1714 670 c-50 -20 -71 -101 -38 -148 8 -12 38 -34 65 -47 34 -18 49
-31 49 -45 0 -25 -24 -26 -48 -2 -13 13 -29 18 -50 14 -36 -5 -38 -11 -17 -52
39 -75 158 -72 190 4 27 65 2 114 -79 153 -44 20 -51 31 -36 53 9 13 13 12 28
-5 20 -24 92 -31 92 -9 0 67 -85 113 -156 84z"/>
<path d="M1910 510 l0 -168 24 -4 c39 -8 51 7 52 64 3 84 3 85 17 58 56 -108
66 -118 112 -122 25 -2 45 1 45 6 0 5 -23 44 -50 88 l-51 78 29 43 c16 23 40
60 54 83 l26 40 -47 -1 c-46 -1 -46 -1 -86 -67 -22 -37 -42 -67 -45 -68 -3 0
-5 30 -5 66 l0 67 -37 2 -38 3 0 -168z"/>
<path d="M2199 675 c-1 0 -3 -75 -4 -167 l-2 -168 43 0 43 0 0 168 0 167 -39
0 c-22 1 -41 1 -41 0z"/>
</g>
</svg>
